# xmcd
#
# Track frame offsets: 
#        150
#        12562
#        25635
#        38820
#        54013
#        68359
#        81963
#        95526
#        109875
#        122306
#        135485
#        148330
#        160276
#        172976
#        185911
#        197524
#        208835
#        222650
#        235341
#        247098
#        258793
#        272084
#        284956
#        298913
#
# Disc length: 4156 seconds
#
# Revision: 0
# Processed by: cddbd v1.5.2PL0 Copyright (c) Steve Scherf et al.
# Submitted via: ExactAudioCopyFreeDBPlugin 1.0
#
DISCID=70103a18
DTITLE=Laura Smith - Complete Recorded Works Vol. 1 (1924-1927)
DYEAR=1996
DGENRE=Blues
TTITLE0=Texas Moaner Blues
TTITLE1=I'm Gonna Get Myself a Real Man
TTITLE2=Has Anybody Seen My Man?
TTITLE3=My Best Friend Stole My Man and Gone
TTITLE4=Two-Faced Woman Blues
TTITLE5=I Can Always Tell When My Man Don't Want Me 'Round
TTITLE6=Face to Face
TTITLE7=Take Me Home, Heavenly Father, with Thee
TTITLE8=Lucy Long
TTITLE9=Disgusted Blues
TTITLE10=Humming Blues
TTITLE11=Cool Can Blues
TTITLE12=I'll Get Even with You
TTITLE13=If You Don't Like It
TTITLE14=JackAss Blues
TTITLE15=Them Has Been Blues
TTITLE16=I'm Goin' to Have Seven Years Bad Luck
TTITLE17=When a 'Gator Holler (Folks Say Sign o' Rain)
TTITLE18=If You Don't Like It Like I Want It Done (I'll Get Somebody E
TTITLE18=lse)
TTITLE19=I'm Gonna Kill Myself
TTITLE20=My Man Just Won't Don't
TTITLE21=Hatefull Blues
TTITLE22=Gonna Put You Right in Jail
TTITLE23=Don't You Leave Me Here
EXTD=
EXTT0=
EXTT1=
EXTT2=
EXTT3=
EXTT4=
EXTT5=
EXTT6=
EXTT7=
EXTT8=
EXTT9=
EXTT10=
EXTT11=
EXTT12=
EXTT13=
EXTT14=
EXTT15=
EXTT16=
EXTT17=
EXTT18=
EXTT19=
EXTT20=
EXTT21=
EXTT22=
EXTT23=
PLAYORDER=
